<svg xmlns="http://www.w3.org/2000/svg" width="900" height="520" viewBox="0 0 900 520">
<rect width="900" height="520" fill="#fffdf5"/>
<text x="30" y="42" font-family="Arial" font-size="28" font-weight="700" fill="#1e3a8a">Fête de fin d’année — données utiles</text>
<text x="40" y="88" font-family="Arial" font-size="20" font-weight="700">Nombre d’élèves par cycle</text>
<line x1="60" y1="300" x2="410" y2="300" stroke="#334155" stroke-width="2"/><line x1="60" y1="110" x2="60" y2="300" stroke="#334155" stroke-width="2"/>
<g font-family="Arial" font-size="16" fill="#0f172a">
<rect x="95" y="205" width="50" height="95" fill="#2563eb"/><text x="108" y="326">Présco.</text><text x="110" y="196">50</text>
<rect x="175" y="148" width="50" height="152" fill="#7c3aed"/><text x="184" y="326">1er</text><text x="190" y="139">80</text>
<rect x="255" y="186" width="50" height="114" fill="#059669"/><text x="266" y="326">2e</text><text x="270" y="177">60</text>
<rect x="335" y="186" width="50" height="114" fill="#ea580c"/><text x="346" y="326">3e</text><text x="350" y="177">60</text>
</g>
<text x="465" y="88" font-family="Arial" font-size="20" font-weight="700">Choix de repas</text>
<rect x="465" y="105" width="390" height="120" rx="10" fill="#eff6ff" stroke="#93c5fd"/>
<g font-family="Arial" font-size="17" fill="#0f172a"><text x="485" y="138">Tacos : 4,25 $ par élève</text><text x="485" y="170">Pâtes : 3,50 $ par élève</text><text x="485" y="202">Poulet : 5,75 $ par élève</text><text x="650" y="202">Boisson : 1,50 $</text></g>
<text x="465" y="270" font-family="Arial" font-size="20" font-weight="700">Location des tables</text>
<rect x="465" y="286" width="390" height="150" rx="10" fill="#f8fafc" stroke="#94a3b8"/>
<g font-family="Arial" font-size="16" fill="#0f172a"><text x="485" y="320">10 places — 10,50 $ par table</text><text x="485" y="355">8 places — 9,00 $ par table</text><text x="485" y="390">12 places — 10,75 $ par table</text><text x="485" y="425">Jeux gonflables : 260 $ la demi-journée</text></g>
<text x="40" y="485" font-family="Arial" font-size="17" fill="#334155">Budget initial : 3 850 $ — bonification maximale : 500 $</text>
</svg>