<svg xmlns="http://www.w3.org/2000/svg" width="900" height="360" viewBox="0 0 900 360"><rect width="900" height="360" fill="white"/><text x="30" y="40" font-family="Arial" font-size="26" font-weight="700">Jours d'école</text><rect x="30" y="70" width="840" height="210" fill="#fff" stroke="#334155" stroke-width="2"/><line x1="30" y1="130" x2="870" y2="130" stroke="#334155"/><line x1="30" y1="210" x2="870" y2="210" stroke="#334155"/><g font-family="Arial" font-size="16" text-anchor="middle"><text x="75" y="108">Mois</text><text x="160" y="108">Sept.</text><text x="240" y="108">Oct.</text><text x="320" y="108">Nov.</text><text x="400" y="108">Déc.</text><text x="480" y="108">Janv.</text><text x="560" y="108">Févr.</text><text x="640" y="108">Mars</text><text x="720" y="108">Avril</text><text x="805" y="100">Mai</text><text x="805" y="118">Juin</text><text x="75" y="175">Jours</text><text x="160" y="175">21</text><text x="240" y="175">21</text><text x="320" y="175">22</text><text x="400" y="175">12</text><text x="480" y="175">22</text><text x="560" y="175">20</text><text x="640" y="175">23</text><text x="720" y="175">20</text><text x="805" y="165">23</text><text x="805" y="187">10</text><text x="75" y="250">Total</text><text x="450" y="250" font-size="22" font-weight="700">À calculer</text></g><text x="30" y="325" font-family="Arial" font-size="17">Récréations : 30 minutes par jour. Temps d'enseignement : 5 heures par jour.</text></svg>