<svg xmlns="http://www.w3.org/2000/svg" width="980" height="360"><rect width="980" height="360" fill="white"/><text x="30" y="40" font-family="Arial" font-size="26" font-weight="700">Jours d ecole</text><rect x="25" y="70" width="930" height="210" fill="white" stroke="#334155" stroke-width="2"/><line x1="25" y1="130" x2="955" y2="130" stroke="#334155"/><line x1="25" y1="210" x2="955" y2="210" stroke="#334155"/><g font-family="Arial" font-size="16" text-anchor="middle"><text x="70" y="108">Mois</text><text x="150" y="108">Sept.</text><text x="230" y="108">Oct.</text><text x="310" y="108">Nov.</text><text x="390" y="108">Dec.</text><text x="470" y="108">Janv.</text><text x="550" y="108">Fevr.</text><text x="630" y="108">Mars</text><text x="710" y="108">Avril</text><text x="790" y="108">Mai</text><text x="880" y="108">Juin</text><text x="70" y="175">Jours</text><text x="150" y="175">10</text><text x="230" y="175">23</text><text x="310" y="175">20</text><text x="390" y="175">23</text><text x="470" y="175">20</text><text x="550" y="175">22</text><text x="630" y="175">12</text><text x="710" y="175">22</text><text x="790" y="175">21</text><text x="880" y="175">21</text><text x="70" y="250">Total</text><text x="490" y="250" font-size="22" font-weight="700">A calculer</text></g><text x="30" y="325" font-family="Arial" font-size="17">Recreations : 30 minutes par jour. Temps d enseignement : 5 heures par jour.</text></svg>