<svg xmlns="http://www.w3.org/2000/svg" width="980" height="360" viewBox="0 0 980 360"><rect width="980" height="360" fill="#f8fafc"/><text x="30" y="42" font-family="Arial" font-size="26" font-weight="700" fill="#1e3a8a">Températures moyennes en Alaska</text><g font-family="Arial" font-size="18" text-anchor="middle"><rect x="30" y="70" width="920" height="210" fill="#fff" stroke="#334155" stroke-width="2"/><g stroke="#334155"><line x1="160" y1="70" x2="160" y2="280"/><line x1="273" y1="70" x2="273" y2="280"/><line x1="386" y1="70" x2="386" y2="280"/><line x1="499" y1="70" x2="499" y2="280"/><line x1="612" y1="70" x2="612" y2="280"/><line x1="725" y1="70" x2="725" y2="280"/><line x1="838" y1="70" x2="838" y2="280"/><line x1="30" y1="120" x2="950" y2="120"/><line x1="30" y1="200" x2="950" y2="200"/></g><g fill="#dbeafe"><rect x="30" y="70" width="920" height="50"/></g><text x="95" y="103">Jour</text><text x="216" y="103">Dim.</text><text x="329" y="103">Lun.</text><text x="442" y="103">Mar.</text><text x="555" y="103">Mer.</text><text x="668" y="103">Jeu.</text><text x="781" y="103">Ven.</text><text x="894" y="103">Sam.</text><text x="95" y="165">T° jour</text><text x="216" y="165">4</text><text x="329" y="165">2</text><text x="442" y="165">−1</text><text x="555" y="165">0</text><text x="668" y="165">−2</text><text x="781" y="165">1</text><text x="894" y="165">0</text><text x="95" y="245">T° nuit</text><text x="216" y="245">−3</text><text x="329" y="245">−6</text><text x="442" y="245">−4</text><text x="555" y="245">−5</text><text x="668" y="245">−8</text><text x="781" y="245">−5</text><text x="894" y="245">−6</text></g><text x="30" y="330" font-family="Arial" font-size="18" fill="#475569">Calcule l’écart entre la température du jour et celle de la nuit pour chaque journée.</text></svg>